<?xml version="1.0" encoding="us-ascii" standalone="no"?><svg xmlns="http://www.w3.org/2000/svg" xmlns:xlink="http://www.w3.org/1999/xlink" contentStyleType="text/css" height="511px" preserveAspectRatio="none" style="width:595px;height:511px;background:#DDDDDD;" version="1.1" viewBox="0 0 595 511" width="595px" zoomAndPan="magnify"><defs/><g><rect fill="#DDDDDD" height="511" style="stroke:none;stroke-width:1.0;" width="595" x="0" y="0"/><rect fill="#FFFFFF" height="250.1738" style="stroke:#454645;stroke-width:1.0;" width="10" x="139" y="112.7988"/><rect fill="#FFFFFF" height="178.5527" style="stroke:#454645;stroke-width:1.0;" width="10" x="253" y="142.1094"/><rect fill="#FFFFFF" height="35.3105" style="stroke:#454645;stroke-width:1.0;" width="10" x="367" y="171.4199"/><rect fill="#FFFFFF" height="35.3105" style="stroke:#454645;stroke-width:1.0;" width="10" x="481" y="243.041"/><line style="stroke:#454645;stroke-width:0.5;stroke-dasharray:5.0,5.0;" x1="40" x2="40" y1="81.4883" y2="430.2832"/><line style="stroke:#454645;stroke-width:0.5;stroke-dasharray:5.0,5.0;" x1="143.5" x2="143.5" y1="81.4883" y2="430.2832"/><line style="stroke:#454645;stroke-width:0.5;stroke-dasharray:5.0,5.0;" x1="257.5" x2="257.5" y1="81.4883" y2="430.2832"/><line style="stroke:#454645;stroke-width:0.5;stroke-dasharray:5.0,5.0;" x1="372" x2="372" y1="81.4883" y2="430.2832"/><line style="stroke:#454645;stroke-width:0.5;stroke-dasharray:5.0,5.0;" x1="486" x2="486" y1="81.4883" y2="430.2832"/><text fill="#454645" font-family="sans-serif" font-size="14" lengthAdjust="spacing" textLength="64" x="5" y="78.5352">rootFiber</text><ellipse cx="40" cy="13.5" fill="#454645" rx="8" ry="8" style="stroke:#454645;stroke-width:0.5;"/><path d="M40,21.5 L40,48.5 M27,29.5 L53,29.5 M40,48.5 L27,63.5 M40,48.5 L53,63.5 " fill="none" style="stroke:#454645;stroke-width:0.5;"/><text fill="#454645" font-family="sans-serif" font-size="14" lengthAdjust="spacing" textLength="64" x="5" y="442.8184">rootFiber</text><ellipse cx="40" cy="454.2715" fill="#454645" rx="8" ry="8" style="stroke:#454645;stroke-width:0.5;"/><path d="M40,462.2715 L40,489.2715 M27,470.2715 L53,470.2715 M40,489.2715 L27,504.2715 M40,489.2715 L53,504.2715 " fill="none" style="stroke:#454645;stroke-width:0.5;"/><text fill="#454645" font-family="sans-serif" font-size="14" lengthAdjust="spacing" textLength="67" x="107.5" y="78.5352">App Fiber</text><ellipse cx="144" cy="49" fill="#FFDA29" rx="12" ry="12" style="stroke:#454645;stroke-width:0.5;"/><line style="stroke:#454645;stroke-width:0.5;" x1="132" x2="156" y1="63" y2="63"/><text fill="#454645" font-family="sans-serif" font-size="14" lengthAdjust="spacing" textLength="67" x="107.5" y="442.8184">App Fiber</text><ellipse cx="144" cy="461.7715" fill="#FFDA29" rx="12" ry="12" style="stroke:#454645;stroke-width:0.5;"/><line style="stroke:#454645;stroke-width:0.5;" x1="132" x2="156" y1="475.7715" y2="475.7715"/><text fill="#454645" font-family="sans-serif" font-size="14" lengthAdjust="spacing" textLength="59" x="225.5" y="78.5352">div Fiber</text><ellipse cx="258" cy="49" fill="#FFDA29" rx="12" ry="12" style="stroke:#454645;stroke-width:0.5;"/><line style="stroke:#454645;stroke-width:0.5;" x1="246" x2="270" y1="63" y2="63"/><text fill="#454645" font-family="sans-serif" font-size="14" lengthAdjust="spacing" textLength="59" x="225.5" y="442.8184">div Fiber</text><ellipse cx="258" cy="461.7715" fill="#FFDA29" rx="12" ry="12" style="stroke:#454645;stroke-width:0.5;"/><line style="stroke:#454645;stroke-width:0.5;" x1="246" x2="270" y1="475.7715" y2="475.7715"/><text fill="#454645" font-family="sans-serif" font-size="14" lengthAdjust="spacing" textLength="68" x="335" y="78.5352">i am Fiber</text><ellipse cx="372" cy="49" fill="#FFDA29" rx="12" ry="12" style="stroke:#454645;stroke-width:0.5;"/><line style="stroke:#454645;stroke-width:0.5;" x1="360" x2="384" y1="63" y2="63"/><text fill="#454645" font-family="sans-serif" font-size="14" lengthAdjust="spacing" textLength="68" x="335" y="442.8184">i am Fiber</text><ellipse cx="372" cy="461.7715" fill="#FFDA29" rx="12" ry="12" style="stroke:#454645;stroke-width:0.5;"/><line style="stroke:#454645;stroke-width:0.5;" x1="360" x2="384" y1="475.7715" y2="475.7715"/><text fill="#454645" font-family="sans-serif" font-size="14" lengthAdjust="spacing" textLength="72" x="447" y="78.5352">span Fiber</text><ellipse cx="486" cy="49" fill="#FFDA29" rx="12" ry="12" style="stroke:#454645;stroke-width:0.5;"/><line style="stroke:#454645;stroke-width:0.5;" x1="474" x2="498" y1="63" y2="63"/><text fill="#454645" font-family="sans-serif" font-size="14" lengthAdjust="spacing" textLength="72" x="447" y="442.8184">span Fiber</text><ellipse cx="486" cy="461.7715" fill="#FFDA29" rx="12" ry="12" style="stroke:#454645;stroke-width:0.5;"/><line style="stroke:#454645;stroke-width:0.5;" x1="474" x2="498" y1="475.7715" y2="475.7715"/><rect fill="#FFFFFF" height="250.1738" style="stroke:#454645;stroke-width:1.0;" width="10" x="139" y="112.7988"/><rect fill="#FFFFFF" height="178.5527" style="stroke:#454645;stroke-width:1.0;" width="10" x="253" y="142.1094"/><rect fill="#FFFFFF" height="35.3105" style="stroke:#454645;stroke-width:1.0;" width="10" x="367" y="171.4199"/><rect fill="#FFFFFF" height="35.3105" style="stroke:#454645;stroke-width:1.0;" width="10" x="481" y="243.041"/><polygon fill="#454645" points="127,108.7988,137,112.7988,127,116.7988,131,112.7988" style="stroke:#454645;stroke-width:1.0;"/><line style="stroke:#454645;stroke-width:1.0;" x1="40" x2="133" y1="112.7988" y2="112.7988"/><text fill="#000000" font-family="sans-serif" font-size="13" lengthAdjust="spacing" textLength="67" x="47" y="108.0566">beginWork</text><polygon fill="#454645" points="241,138.1094,251,142.1094,241,146.1094,245,142.1094" style="stroke:#454645;stroke-width:1.0;"/><line style="stroke:#454645;stroke-width:1.0;" x1="149" x2="247" y1="142.1094" y2="142.1094"/><text fill="#000000" font-family="sans-serif" font-size="13" lengthAdjust="spacing" textLength="67" x="156" y="137.3672">beginWork</text><polygon fill="#454645" points="355,167.4199,365,171.4199,355,175.4199,359,171.4199" style="stroke:#454645;stroke-width:1.0;"/><line style="stroke:#454645;stroke-width:1.0;" x1="263" x2="361" y1="171.4199" y2="171.4199"/><text fill="#000000" font-family="sans-serif" font-size="13" lengthAdjust="spacing" textLength="67" x="270" y="166.6777">beginWork</text><line style="stroke:#454645;stroke-width:1.0;" x1="377" x2="419" y1="205.7305" y2="205.7305"/><line style="stroke:#454645;stroke-width:1.0;" x1="419" x2="419" y1="205.7305" y2="218.7305"/><line style="stroke:#454645;stroke-width:1.0;" x1="372" x2="419" y1="218.7305" y2="218.7305"/><polygon fill="#454645" points="382,214.7305,372,218.7305,382,222.7305,378,218.7305" style="stroke:#454645;stroke-width:1.0;"/><text fill="#000000" font-family="sans-serif" font-size="13" lengthAdjust="spacing" textLength="90" x="384" y="200.9883">completeWork</text><polygon fill="#454645" points="469,239.041,479,243.041,469,247.041,473,243.041" style="stroke:#454645;stroke-width:1.0;"/><line style="stroke:#454645;stroke-width:1.0;" x1="263" x2="475" y1="243.041" y2="243.041"/><text fill="#000000" font-family="sans-serif" font-size="13" lengthAdjust="spacing" textLength="67" x="270" y="238.2988">beginWork</text><line style="stroke:#454645;stroke-width:1.0;" x1="491" x2="533" y1="277.3516" y2="277.3516"/><line style="stroke:#454645;stroke-width:1.0;" x1="533" x2="533" y1="277.3516" y2="290.3516"/><line style="stroke:#454645;stroke-width:1.0;" x1="486" x2="533" y1="290.3516" y2="290.3516"/><polygon fill="#454645" points="496,286.3516,486,290.3516,496,294.3516,492,290.3516" style="stroke:#454645;stroke-width:1.0;"/><text fill="#000000" font-family="sans-serif" font-size="13" lengthAdjust="spacing" textLength="90" x="498" y="272.6094">completeWork</text><line style="stroke:#454645;stroke-width:1.0;" x1="263" x2="305" y1="319.6621" y2="319.6621"/><line style="stroke:#454645;stroke-width:1.0;" x1="305" x2="305" y1="319.6621" y2="332.6621"/><line style="stroke:#454645;stroke-width:1.0;" x1="258" x2="305" y1="332.6621" y2="332.6621"/><polygon fill="#454645" points="268,328.6621,258,332.6621,268,336.6621,264,332.6621" style="stroke:#454645;stroke-width:1.0;"/><text fill="#000000" font-family="sans-serif" font-size="13" lengthAdjust="spacing" textLength="90" x="270" y="314.9199">completeWork</text><line style="stroke:#454645;stroke-width:1.0;" x1="149" x2="191" y1="361.9727" y2="361.9727"/><line style="stroke:#454645;stroke-width:1.0;" x1="191" x2="191" y1="361.9727" y2="374.9727"/><line style="stroke:#454645;stroke-width:1.0;" x1="144" x2="191" y1="374.9727" y2="374.9727"/><polygon fill="#454645" points="154,370.9727,144,374.9727,154,378.9727,150,374.9727" style="stroke:#454645;stroke-width:1.0;"/><text fill="#000000" font-family="sans-serif" font-size="13" lengthAdjust="spacing" textLength="90" x="156" y="357.2305">completeWork</text><line style="stroke:#454645;stroke-width:1.0;" x1="40" x2="82" y1="404.2832" y2="404.2832"/><line style="stroke:#454645;stroke-width:1.0;" x1="82" x2="82" y1="404.2832" y2="417.2832"/><line style="stroke:#454645;stroke-width:1.0;" x1="35" x2="82" y1="417.2832" y2="417.2832"/><polygon fill="#454645" points="45,413.2832,35,417.2832,45,421.2832,41,417.2832" style="stroke:#454645;stroke-width:1.0;"/><text fill="#000000" font-family="sans-serif" font-size="13" lengthAdjust="spacing" textLength="90" x="47" y="399.541">completeWork</text><!--SRC=[TP7F2i8m38VlUOguko_WGHY8u5KFdhijQD6kPOR1tjugDEb6UmpVxoF_TlmaHyX-0J0z-mcltlFPTZIX-M0pfQe16jdoWcq8YcE1Qtooi-B1pXjyQPrYYyPj-2sOKGEVMAK0w63xeqvnm8uUThpxwVLRmCw6IIY0vA8ZenMTH04a5nsPj-Wa2Y2vjTDx5zx4zDS6AeXvCrs-s4qmW2OtMgrXvkOTivFKJBrBVili_ZLHdx3wd1PrLJBm1G00]--></g></svg>